<svg width="928" height="752" viewBox="0 0 928 752" fill="none" xmlns="http://www.w3.org/2000/svg">
<g clip-path="url(#clip0)">
<path fill-rule="evenodd" clip-rule="evenodd" d="M196.013 447.344C128.038 429.401 54.1649 461.55 21.1966 527.761C-16.4674 603.402 13.5178 694.855 88.1704 732.027C123.002 749.37 161.403 751.833 196.286 741.842C205.518 740.154 216.179 738.107 228.029 735.832C346.196 713.144 582.629 667.75 700.403 729.669L700.411 729.465C702.605 730.696 704.84 731.879 707.116 733.012C781.522 770.061 871.773 739.977 908.699 665.819C945.624 591.661 915.24 501.51 840.835 464.462C795.653 441.964 744.628 444.221 703.249 466.07C559.647 528.036 359.806 483.45 245.473 457.941C226.383 453.682 209.676 449.954 196.013 447.344Z" fill="url(#paint0_linear)"/>
<path d="M614 150C614 232.843 546.843 300 464 300C381.157 300 314 232.843 314 150C314 67.1573 381.157 0 464 0C546.843 0 614 67.1573 614 150Z" fill="url(#paint1_linear)"/>
</g>
<defs>
<linearGradient id="paint0_linear" x1="87.5" y1="278.5" x2="1061.73" y2="640.324" gradientUnits="userSpaceOnUse">
<stop offset="0.213542" stop-color="#3182CE"/>
<stop offset="0.552083" stop-color="#4299E1"/>
<stop offset="1" stop-color="#BEE3F8"/>
</linearGradient>
<linearGradient id="paint1_linear" x1="217" y1="57" x2="676" y2="412.5" gradientUnits="userSpaceOnUse">
<stop offset="0.0989583" stop-color="#3182CE"/>
<stop offset="0.4375" stop-color="#4299E1"/>
<stop offset="0.744792" stop-color="#BEE3F8"/>
<stop offset="1" stop-color="#BEE3F8"/>
</linearGradient>
<clipPath id="clip0">
<rect width="928" height="752" fill="white"/>
</clipPath>
</defs>
</svg>
